<?xml version="1.0" encoding="utf-8"?>
<!-- Generator: Adobe Illustrator 26.1.0, SVG Export Plug-In . SVG Version: 6.00 Build 0)  -->
<svg version="1.1" id="Layer_1" xmlns="http://www.w3.org/2000/svg" xmlns:xlink="http://www.w3.org/1999/xlink" x="0px" y="0px"
	 viewBox="0 0 64 64" style="enable-background:new 0 0 64 64;" xml:space="preserve">
<style type="text/css">
	.st0{fill:#FFFFFF;}
	.st1{fill:#FFC200;}
</style>
<g>
	<path class="st0" d="M30.4,59.2c-4.7,0-9.3-1.7-12.9-4.8l-6.6-5.7c-5.4-4.7-7.9-12-6.4-19L6,23c1.5-7,6.7-12.7,13.5-14.8l8.4-2.5
		c1.9-0.6,3.8-0.9,5.7-0.9c4.7,0,9.3,1.7,12.9,4.8l6.6,5.7c5.4,4.7,7.9,12,6.4,19L58,41c-1.5,7-6.7,12.7-13.5,14.8l-8.4,2.5
		C34.3,58.9,32.4,59.2,30.4,59.2z"/>
	<path d="M33.6,4.2v1.3c4.6,0,9,1.6,12.4,4.6l6.6,5.7c5.2,4.5,7.6,11.6,6.2,18.3l-1.4,6.7c-1.4,6.8-6.4,12.3-13.1,14.3L36,57.7
		c-1.8,0.5-3.7,0.8-5.5,0.8c-4.6,0-9-1.6-12.4-4.6l-6.6-5.7c-5.2-4.5-7.6-11.6-6.2-18.3l1.4-6.7C8,16.4,13.1,10.9,19.7,8.9L28,6.3
		c1.8-0.5,3.7-0.8,5.5-0.8L33.6,4.2 M33.6,4.2c-2,0-4,0.3-5.9,0.9l-8.4,2.5c-7.1,2.2-12.5,8-14,15.3l-1.4,6.7
		c-1.5,7.3,1,14.8,6.6,19.6l6.6,5.7c3.7,3.2,8.5,5,13.3,5c2,0,4-0.3,5.9-0.9l8.4-2.5c7.1-2.2,12.5-8,14-15.3l1.4-6.7
		c1.5-7.3-1-14.8-6.6-19.6l-6.6-5.7C43.1,5.9,38.4,4.2,33.6,4.2L33.6,4.2z"/>
</g>
<g>
	<path class="st1" d="M33.9,41.7l-1.7,0.8c-4.4,2.1-9.5,1.7-13.5-1l-1.5-1c-4-2.7-6.3-7.4-5.9-12.2l0.1-1.8
		c0.4-4.8,3.3-9.1,7.6-11.2l1.7-0.8c4.4-2.1,9.5-1.7,13.5,1l1.5,1c4,2.7,6.3,7.4,5.9,12.2l-0.1,1.8C41.2,35.4,38.3,39.6,33.9,41.7z"
		/>
</g>
</svg>
